HIERARCHY
ROOT Hips
{
	OFFSET 0.00000 0.00000 0.00000
	CHANNELS 6 Xposition Yposition Zposition Zrotation Yrotation Xrotation 
	JOINT LHipJoint
	{
		OFFSET 0 0 0
		CHANNELS 3 Zrotation Yrotation Xrotation
		JOINT LeftUpLeg
		{
			OFFSET 1.61328 -1.70571 0.84375
			CHANNELS 3 Zrotation Yrotation Xrotation
			JOINT LeftLeg
			{
				OFFSET 2.32400 -6.38513 0.00000
				CHANNELS 3 Zrotation Yrotation Xrotation
				JOINT LeftFoot
				{
					OFFSET 2.58843 -7.11166 0.00000
					CHANNELS 3 Zrotation Yrotation Xrotation
					JOINT LeftToeBase
					{
						OFFSET 0.17200 -0.47257 2.47970
						CHANNELS 3 Zrotation Yrotation Xrotation
						End Site
						{
							OFFSET 0.00000 -0.00000 1.26912
						}
					}
				}
			}
		}
	}
	JOINT RHipJoint
	{
		OFFSET 0 0 0
		CHANNELS 3 Zrotation Yrotation Xrotation
		JOINT RightUpLeg
		{
			OFFSET -1.49930 -1.70570 0.84375
			CHANNELS 3 Zrotation Yrotation Xrotation
			JOINT RightLeg
			{
				OFFSET -2.30458 -6.33178 0.00000
				CHANNELS 3 Zrotation Yrotation Xrotation
				JOINT RightFoot
				{
					OFFSET -2.62261 -7.20556 0.00000
					CHANNELS 3 Zrotation Yrotation Xrotation
					JOINT RightToeBase
					{
						OFFSET -0.18709 -0.51403 2.51340
						CHANNELS 3 Zrotation Yrotation Xrotation
						End Site
						{
							OFFSET -0.00000 -0.00000 1.28858
						}
					}
				}
			}
		}
	}
	JOINT LowerBack
	{
		OFFSET 0 0 0
		CHANNELS 3 Zrotation Yrotation Xrotation
		JOINT Spine
		{
			OFFSET -0.03798 2.19274 -0.19881
			CHANNELS 3 Zrotation Yrotation Xrotation
			JOINT Spine1
			{
				OFFSET -0.00024 2.19460 0.05248
				CHANNELS 3 Zrotation Yrotation Xrotation
				JOINT Neck
				{
					OFFSET 0 0 0
					CHANNELS 3 Zrotation Yrotation Xrotation
					JOINT Neck1
					{
						OFFSET -0.00746 1.82323 0.17286
						CHANNELS 3 Zrotation Yrotation Xrotation
						JOINT Head
						{
							OFFSET 0.11826 1.82121 -0.27841
							CHANNELS 3 Zrotation Yrotation Xrotation
							End Site
							{
								OFFSET 0.03496 1.85543 -0.11495
							}
						}
					}
				}
				JOINT LeftShoulder
				{
					OFFSET 0 0 0
					CHANNELS 3 Zrotation Yrotation Xrotation
					JOINT LeftArm
					{
						OFFSET 3.71926 0.78840 0.25473
						CHANNELS 3 Zrotation Yrotation Xrotation
						JOINT LeftForeArm
						{
							OFFSET 5.37587 -0.00000 0.00000
							CHANNELS 3 Zrotation Yrotation Xrotation
							JOINT LeftHand
							{
								OFFSET 3.35977 -0.00000 0.00000
								CHANNELS 3 Zrotation Yrotation Xrotation
								JOINT LeftFingerBase
								{
									OFFSET 0 0 0
									CHANNELS 3 Zrotation Yrotation Xrotation
									JOINT LeftHandIndex1
									{
										OFFSET 0.56186 -0.00000 0.00000
										CHANNELS 3 Zrotation Yrotation Xrotation
										End Site
										{
											OFFSET 0.45299 -0.00000 0.00000
										}
									}
								}
								JOINT LThumb
								{
									OFFSET 0 0 0
									CHANNELS 3 Zrotation Yrotation Xrotation
									End Site
									{
										OFFSET 0.45990 -0.00000 0.45990
									}
								}
							}
						}
					}
				}
				JOINT RightShoulder
				{
					OFFSET 0 0 0
					CHANNELS 3 Zrotation Yrotation Xrotation
					JOINT RightArm
					{
						OFFSET -3.65136 0.56074 0.01624
						CHANNELS 3 Zrotation Yrotation Xrotation
						JOINT RightForeArm
						{
							OFFSET -5.22819 -0.00000 0.00000
							CHANNELS 3 Zrotation Yrotation Xrotation
							JOINT RightHand
							{
								OFFSET -3.40764 -0.00000 0.00000
								CHANNELS 3 Zrotation Yrotation Xrotation
								JOINT RightFingerBase
								{
									OFFSET 0 0 0
									CHANNELS 3 Zrotation Yrotation Xrotation
									JOINT RightHandIndex1
									{
										OFFSET -0.58325 -0.00000 0.00000
										CHANNELS 3 Zrotation Yrotation Xrotation
										End Site
										{
											OFFSET -0.47024 -0.00000 0.00000
										}
									}
								}
								JOINT RThumb
								{
									OFFSET 0 0 0
									CHANNELS 3 Zrotation Yrotation Xrotation
									End Site
									{
										OFFSET -0.47742 -0.00000 0.47742
									}
								}
							}
						}
					}
				}
			}
		}
	}
}
MOTION
Frames: 13
Frame Time: .0083333
50.6548 15.6649 -6.1130 -104.4200 -88.8329 831.3950 0.0000 0.0000 0.0000 -21.4947 -1.3862 -36.2608 7.6204 15.8329 51.1837 1.4674 5.4660 -25.4271 0.1339 -2.3583 -6.4968 0.0000 0.0000 0.0000 14.6769 9.5316 -35.3883 -10.9063 -17.8889 62.4768 -2.1031 0.9780 -27.1724 -0.0255 -1.0299 2.8311 -2.9771 1.5904 17.3499 -0.6904 0.4736 14.9200 0.8161 -0.4962 6.3943 0.2070 3.6854 0.2179 -1.9966 4.5474 -14.4966 -0.8962 2.2254 -4.7945 0.0000 0.0000 0.0000 -76.3451 -40.9865 29.5020 83.8069 -59.8546 -54.6393 -0.0000 -0.0000 0.4933 21.8469 12.4541 4.9416 -7.1250 0.0000 -0.0000 -4.9338 43.3098 0.2063 0.0000 0.0000 0.0000 75.2585 6.6052 29.0065 -39.9450 48.0373 -18.3983 0.0000 0.0000 6.0362 -39.3263 6.2246 -5.0762 7.1250 -0.0000 -0.0000 -9.1619 -21.9891 -5.1292
50.6498 15.6579 -6.0789 -115.3440 -88.7084 842.3650 0.0000 0.0000 0.0000 -21.5906 -1.3292 -36.3509 7.6460 15.8526 51.2773 1.4790 5.5584 -25.5669 0.1301 -2.3254 -6.4059 0.0000 0.0000 0.0000 14.4428 9.6999 -35.9861 -11.1593 -18.0122 63.2978 -2.0068 0.8955 -26.5542 -0.0311 -1.1380 3.1286 -3.0091 1.6259 17.4097 -0.7236 0.5078 14.9241 0.7942 -0.4822 6.3669 0.2513 3.7452 0.2409 -2.0766 4.6204 -14.5407 -0.9355 2.2628 -4.8113 0.0000 0.0000 0.0000 -76.2171 -41.1458 29.3563 83.8387 -59.8561 -54.6667 -0.0000 -0.0000 0.4922 21.7788 12.4670 4.9297 -7.1250 0.0000 -0.0000 -4.9976 43.3161 0.2082 0.0000 0.0000 0.0000 75.2921 6.5690 28.8357 -40.0061 48.0735 -18.4438 0.0000 0.0000 6.0321 -39.2825 6.3199 -5.1452 7.1250 -0.0000 -0.0000 -9.1167 -21.8731 -5.1277
50.6447 15.6505 -6.0453 -124.5090 -88.5381 851.5730 0.0000 0.0000 0.0000 -21.6870 -1.2370 -36.4518 7.6728 15.8732 51.3754 1.4915 5.6330 -25.7029 0.1270 -2.2970 -6.3272 0.0000 0.0000 0.0000 14.2087 9.8970 -36.6135 -11.4277 -18.1381 64.1629 -1.9067 0.7426 -25.9162 -0.0403 -1.2965 3.5649 -3.0553 1.6692 17.4668 -0.7529 0.5499 14.9313 0.7834 -0.4661 6.3441 0.2886 3.8063 0.2644 -2.1574 4.6943 -14.5949 -0.9742 2.3010 -4.8322 -0.0000 0.0000 0.0000 -76.0792 -41.2978 29.2122 83.8924 -59.8586 -54.7132 -0.0000 -0.0000 0.4821 21.7157 12.4782 4.9183 -7.1250 0.0000 -0.0000 -5.0564 43.3211 0.2101 -0.0000 0.0000 0.0000 75.3163 6.5388 28.6769 -40.0764 48.1151 -18.4961 0.0000 0.0000 6.0352 -39.2450 6.3993 -5.2024 7.1250 -0.0000 -0.0000 -9.0783 -21.7766 -5.1257
50.6394 15.6433 -6.0123 -131.9450 -88.3298 859.0450 0.0000 0.0000 0.0000 -21.7855 -1.1042 -36.5551 7.6993 15.8936 51.4723 1.5055 5.6843 -25.8366 0.1241 -2.2706 -6.2542 0.0000 0.0000 0.0000 13.9750 10.1241 -37.2697 -11.7106 -18.2656 65.0684 -1.8025 0.4934 -25.2622 -0.0532 -1.4880 4.0927 -3.1149 1.7214 17.5245 -0.7796 0.6010 14.9442 0.7815 -0.4473 6.3271 0.3245 3.8663 0.2793 -2.2367 4.7663 -14.6575 -1.0121 2.3380 -4.8544 0.0000 0.0000 0.0000 -75.9302 -41.4496 29.0722 83.9572 -59.8616 -54.7693 -0.0000 -0.0000 0.4753 21.6807 12.4950 4.9161 -7.1250 0.0000 -0.0000 -5.0909 43.3351 0.2098 0.0000 0.0000 0.0000 75.3328 6.5180 28.5301 -40.1546 48.1612 -18.5543 0.0000 0.0000 6.0476 -39.2115 6.4438 -5.2320 7.1250 -0.0000 -0.0000 -9.0479 -21.7240 -5.1191
50.6338 15.6366 -5.9799 -137.8950 -88.0897 865.0260 0.0000 0.0000 0.0000 -21.8865 -0.9320 -36.6590 7.7247 15.9130 51.5649 1.5202 5.7215 -25.9657 0.1224 -2.2552 -6.2113 0.0000 0.0000 0.0000 13.7431 10.3808 -37.9555 -12.0068 -18.3935 66.0103 -1.6944 0.1322 -24.5978 -0.0701 -1.7081 4.6995 -3.1851 1.7827 17.5821 -0.8046 0.6616 14.9614 0.7861 -0.4252 6.3148 0.3538 3.9271 0.2941 -2.3088 4.8395 -14.7308 -1.0468 2.3754 -4.8810 0.0000 0.0000 0.0000 -75.7679 -41.5968 28.9387 84.0342 -59.8651 -54.8358 -0.0000 -0.0000 0.4688 21.6742 12.5139 4.9218 -7.1250 0.0000 -0.0000 -5.1000 43.3544 0.2077 0.0000 0.0000 0.0000 75.3468 6.5082 28.3930 -40.2329 48.2073 -18.6127 0.0000 0.0000 6.0737 -39.1885 6.4589 -5.2398 7.1250 -0.0000 -0.0000 -9.0292 -21.7075 -5.1117
50.6279 15.6303 -5.9481 -142.6350 -87.8260 869.7900 0.0000 0.0000 0.0000 -21.9902 -0.7241 -36.7610 7.7485 15.9312 51.6518 1.5358 5.7397 -26.0903 0.1211 -2.2435 -6.1791 0.0000 0.0000 0.0000 13.5138 10.6591 -38.6706 -12.3145 -18.5205 66.9823 -1.5825 -0.3460 -23.9268 -0.0921 -1.9574 5.3879 -3.2725 1.8491 17.6343 -0.8244 0.7258 14.9881 0.8052 -0.4039 6.3159 0.3716 3.9896 0.2921 -2.3817 4.9138 -14.8100 -1.0794 2.4137 -4.9066 -0.0000 -0.0000 0.0000 -75.5917 -41.7432 28.7918 84.1237 -59.8691 -54.9132 -0.0000 -0.0000 0.4639 21.6917 12.5290 4.9320 -7.1250 0.0000 -0.0000 -5.0867 43.3723 0.2049 -0.0000 -0.0000 0.0000 75.3469 6.5221 28.2755 -40.3100 48.2525 -18.6702 0.0000 0.0000 6.0922 -39.1592 6.4615 -5.2365 7.1250 -0.0000 -0.0000 -9.0081 -21.7074 -5.0994
50.6215 15.6244 -5.9167 -146.4710 -87.5462 873.6410 0.0000 0.0000 0.0000 -22.0990 -0.4898 -36.8569 7.7713 15.9485 51.7348 1.5519 5.7480 -26.2126 0.1205 -2.2383 -6.1646 0.0000 0.0000 0.0000 13.2877 10.9487 -39.4078 -12.6308 -18.6448 67.9749 -1.4679 -0.9271 -23.2569 -0.1194 -2.2277 6.1353 -3.3678 1.9199 17.6832 -0.8452 0.7936 15.0225 0.8269 -0.3822 6.3273 0.3891 4.0520 0.2888 -2.4537 4.9873 -14.9013 -1.1121 2.4514 -4.9366 0.0000 -0.0000 0.0000 -75.3981 -41.8887 28.6394 84.2195 -59.8734 -54.9961 -0.0000 -0.0000 0.4548 21.7329 12.5439 4.9480 -7.1250 0.0000 -0.0000 -5.0519 43.3927 0.2009 0.0000 -0.0000 0.0000 75.3469 6.5518 28.1682 -40.3890 48.2987 -18.7291 0.0000 0.0000 6.0941 -39.1089 6.4654 -5.2302 7.1250 -0.0000 -0.0000 -8.9716 -21.7081 -5.0781
50.6149 15.6182 -5.8855 -149.6290 -87.2559 876.8090 0.0000 0.0000 0.0000 -22.2127 -0.2406 -36.9524 7.7947 15.9661 51.8198 1.5690 5.7458 -26.3350 0.1197 -2.2301 -6.1421 0.0000 0.0000 0.0000 13.0647 11.2374 -40.1660 -12.9535 -18.7653 68.9809 -1.3524 -1.5829 -22.5960 -0.1536 -2.5255 6.9603 -3.4693 1.9932 17.7247 -0.8663 0.8636 15.0637 0.8515 -0.3605 6.3502 0.4055 4.1128 0.2889 -2.5264 5.0583 -15.0011 -1.1450 2.4878 -4.9704 0.0000 -0.0000 0.0000 -75.1935 -42.0340 28.4811 84.3184 -59.8777 -55.0816 -0.0000 -0.0000 0.4375 21.7802 12.5502 4.9622 -7.1250 0.0000 -0.0000 -5.0103 43.4047 0.1978 0.0000 -0.0000 0.0000 75.3445 6.5966 28.0719 -40.4660 48.3436 -18.7867 0.0000 0.0000 6.0824 -39.0548 6.4667 -5.2213 7.1250 -0.0000 -0.0000 -8.9328 -21.7122 -5.0548
50.6080 15.6111 -5.8546 -152.2630 -86.9686 879.4460 0.0000 0.0000 0.0000 -22.3351 0.0081 -37.0461 7.8201 15.9853 51.9120 1.5867 5.7384 -26.4588 0.1185 -2.2197 -6.1133 0.0000 0.0000 0.0000 12.8443 11.5056 -40.9381 -13.2795 -18.8808 69.9913 -1.2381 -2.2739 -21.9510 -0.1992 -2.8741 7.9284 -3.5772 2.0633 17.7600 -0.8879 0.9281 15.1119 0.8795 -0.3427 6.3845 0.4167 4.1729 0.2877 -2.6004 5.1274 -15.1051 -1.1776 2.5236 -5.0057 -0.0000 -0.0000 0.0000 -74.9764 -42.1761 28.3078 84.4272 -59.8823 -55.1757 -0.0000 -0.0000 0.4063 21.8202 12.5445 4.9700 -7.1250 0.0000 -0.0000 -4.9732 43.4031 0.1965 -0.0000 -0.0000 0.0000 75.3403 6.6583 27.9893 -40.5387 48.3858 -18.8410 0.0000 0.0000 6.0674 -39.0048 6.4643 -5.2101 7.1250 -0.0000 -0.0000 -8.8976 -21.7207 -5.0326
50.6017 15.6029 -5.8242 -154.3150 -86.7131 881.5110 0.0000 0.0000 0.0000 -22.4618 0.2193 -37.1534 7.8491 16.0071 52.0173 1.6053 5.7196 -26.5811 0.1161 -2.1969 -6.0503 0.0000 0.0000 0.0000 12.6278 11.7288 -41.7442 -13.6073 -18.9906 71.0014 -1.1263 -2.9759 -21.3231 -0.2590 -3.2744 9.0438 -3.6761 2.1191 17.7931 -0.9134 0.9768 15.1520 0.9003 -0.3310 6.4114 0.4395 4.2291 0.3570 -2.7547 5.1728 -15.6517 -1.1223 2.5629 -4.6623 0.0000 0.0000 0.0000 -74.7487 -42.3087 28.1373 84.5295 -59.8866 -55.2642 -0.0000 -0.0000 0.3621 21.8479 12.5329 4.9725 -7.1250 0.0000 -0.0000 -4.9462 43.3938 0.1966 0.0000 0.0000 0.0000 75.3485 6.7135 27.9137 -40.6100 48.4272 -18.8943 0.0000 0.0000 6.0644 -38.9738 6.4480 -5.1914 7.1250 -0.0000 -0.0000 -8.8778 -21.7447 -5.0163
50.5956 15.5936 -5.7942 -155.9250 -86.4955 883.1400 0.0000 0.0000 0.0000 -22.5927 0.3885 -37.2654 7.8819 16.0317 52.1362 1.6240 5.7007 -26.7032 0.1136 -2.1728 -5.9836 0.0000 0.0000 0.0000 12.4203 11.8967 -42.5731 -13.9334 -19.0937 72.0011 -1.0171 -3.6776 -20.7130 -0.3347 -3.7179 10.2843 -3.7616 2.1571 17.8311 -0.9436 1.0052 15.1838 0.9112 -0.3271 6.4271 0.4671 4.2832 0.3838 -2.8349 5.2340 -15.7561 -1.1560 2.5952 -4.6948 -0.0000 -0.0000 0.0000 -74.5055 -42.4235 27.9614 84.6346 -59.8909 -55.3551 -0.0000 -0.0000 0.3054 21.8533 12.5179 4.9680 -7.1250 0.0000 -0.0000 -4.9388 43.3785 0.1981 -0.0000 -0.0000 0.0000 75.3700 6.7592 27.8491 -40.6808 48.4681 -18.9473 0.0000 0.0000 6.0835 -38.9679 6.4204 -5.1682 7.1250 -0.0000 -0.0000 -8.8776 -21.7802 -5.0089
50.5896 15.5836 -5.7648 -157.1510 -86.3245 884.3890 0.0000 0.0000 0.0000 -22.7245 0.5099 -37.3772 7.9180 16.0586 52.2670 1.6424 5.6825 -26.8239 0.1112 -2.1499 -5.9200 0.0000 0.0000 0.0000 12.2276 11.9996 -43.4192 -14.2541 -19.1893 72.9791 -0.9107 -4.3774 -20.1216 -0.4262 -4.1901 11.6120 -3.8292 2.1736 17.8809 -0.9790 1.0088 15.2043 0.9096 -0.3326 6.4250 0.5007 4.3339 0.4187 -2.9133 5.2915 -15.8545 -1.1903 2.6254 -4.7265 -0.0000 -0.0000 0.0000 -74.2489 -42.5223 27.7827 84.7202 -59.8944 -55.4292 -0.0000 -0.0000 0.2522 21.8482 12.5108 4.9639 -7.1250 0.0000 -0.0000 -4.9422 43.3703 0.1993 -0.0000 -0.0000 0.0000 75.4091 6.7917 27.7950 -40.7472 48.5064 -18.9971 0.0000 0.0000 6.1281 -38.9894 6.3870 -5.1456 7.1250 -0.0000 -0.0000 -8.8977 -21.8198 -5.0124
50.5831 15.5731 -5.7361 -158.0350 -86.1955 885.2930 0.0000 0.0000 0.0000 -22.8521 0.5905 -37.4778 7.9564 16.0871 52.4054 1.6606 5.6681 -26.9438 0.1092 -2.1312 -5.8683 0.0000 0.0000 0.0000 12.0590 12.0419 -44.2630 -14.5640 -19.2762 73.9197 -0.8106 -5.0593 -19.5764 -0.5331 -4.6786 12.9940 -3.8699 2.1720 17.9499 -1.0196 0.9928 15.2110 0.8898 -0.3439 6.3983 0.5427 4.3797 0.4701 -2.9819 5.3449 -15.9388 -1.2229 2.6530 -4.7569 0.0000 -0.0000 0.0000 -73.9852 -42.5970 27.6169 84.7884 -59.8971 -55.4882 -0.0000 -0.0000 0.2052 21.8354 12.5203 4.9645 -7.1250 0.0000 -0.0000 -4.9553 43.3791 0.1988 0.0000 -0.0000 0.0000 75.4698 6.7973 27.7426 -40.8105 48.5428 -19.0445 0.0000 0.0000 6.2001 -39.0322 6.3460 -5.1206 7.1250 -0.0000 -0.0000 -8.9342 -21.8670 -5.0237
